<?xml version="1.0" encoding="UTF-8"?>
<svg id="Layer_2" data-name="Layer 2" xmlns="http://www.w3.org/2000/svg" viewBox="0 0 451.58 56.5">
  <defs>
    <style>
      .cls-1 {
        fill: #000;
        stroke-width: 0px;
      }
    </style>
  </defs>
  <g id="Layer_1-2" data-name="Layer 1">
    <g>
      <polygon class="cls-1" points="0 54.4 0 0 35.54 0 35.54 10.12 10.84 10.12 10.84 22.83 33.52 22.83 33.52 32.8 10.84 32.8 10.84 44.28 36.26 44.28 36.26 54.4 0 54.4"/>
      <path class="cls-1" d="M33.54,8.12H8.84v16.71h22.68v5.98H8.84v15.48h25.42v6.12H2V2h31.54v6.12Z"/>
      <polygon class="cls-1" points="82.66 54.4 82.66 26.26 70.57 54.4 61.88 54.4 49.94 26.51 49.94 54.4 39.1 54.4 39.1 0 49.61 0 66.37 38.91 83.05 0 93.36 0 93.36 54.4 82.66 54.4"/>
      <path class="cls-1" d="M66.37,43.98L84.37,2h6.98v50.4h-6.7V16.54l-15.41,35.86h-6.05l-15.27-35.64v35.64h-6.84V2h7.2l18.07,41.98Z"/>
      <polygon class="cls-1" points="141.84 54.4 141.84 26.26 129.75 54.4 121.07 54.4 109.12 26.51 109.12 54.4 98.28 54.4 98.28 0 108.8 0 125.55 38.91 142.24 0 152.54 0 152.54 54.4 141.84 54.4"/>
      <path class="cls-1" d="M125.55,43.98L143.55,2h6.98v50.4h-6.7V16.54l-15.41,35.86h-6.05l-15.27-35.64v35.64h-6.84V2h7.2l18.07,41.98Z"/>
      <path class="cls-1" d="M192.34,54.4l-4.46-12.1h-19.17l-4.46,12.1h-11.48L173.2,0h10.26l20.44,54.4h-11.55ZM184.09,32.19l-5.83-15.65-5.78,15.65h11.6Z"/>
      <path class="cls-1" d="M189.27,40.31h-21.96l-4.46,12.1h-7.2L174.58,2h7.49l18.94,50.4h-7.27l-4.46-12.1ZM186.97,34.19l-8.71-23.4-8.64,23.4h17.35Z"/>
      <polygon class="cls-1" points="239.28 54.4 214.96 19.78 214.96 54.4 204.12 54.4 204.12 0 213.85 0 238.25 34.7 238.25 0 249.02 0 249.02 54.4 239.28 54.4"/>
      <path class="cls-1" d="M240.25,41.03V2h6.77v50.4h-6.7l-27.36-38.96v38.96h-6.84V2h6.7l27.43,39.03Z"/>
      <path class="cls-1" d="M276.1,55.12c-14.38,0-22.31-8.97-22.31-25.26V0h10.84v29.87c0,9.9,3.86,14.92,11.46,14.92,4.8,0,11.18-1.55,11.18-14.92V0h10.7v29.87c0,16.76-7.36,25.26-21.87,25.26Z"/>
      <path class="cls-1" d="M276.1,53.12c-13.61,0-20.31-8.35-20.31-23.26V2h6.84v27.87c0,10.66,4.39,16.92,13.46,16.92s13.18-6.26,13.18-16.92V2h6.7v27.87c0,14.91-6.05,23.26-19.87,23.26Z"/>
      <polygon class="cls-1" points="302.61 54.4 302.61 0 338.15 0 338.15 10.12 313.45 10.12 313.45 22.83 336.13 22.83 336.13 32.8 313.45 32.8 313.45 44.28 338.87 44.28 338.87 54.4 302.61 54.4"/>
      <path class="cls-1" d="M336.15,8.12h-24.7v16.71h22.68v5.98h-22.68v15.48h25.42v6.12h-32.26V2h31.54v6.12Z"/>
      <polygon class="cls-1" points="341.56 54.4 341.56 0 352.4 0 352.4 44.28 378.11 44.28 378.11 54.4 341.56 54.4"/>
      <path class="cls-1" d="M350.4,46.28h25.71v6.12h-32.55V2h6.84v44.28Z"/>
      <polygon class="cls-1" points="395.35 54.4 395.35 0 406.19 0 406.19 44.28 431.89 44.28 431.89 54.4 395.35 54.4"/>
      <path class="cls-1" d="M404.19,46.28h25.71v6.12h-32.55V2h6.84v44.28Z"/>
    </g>
    <rect class="cls-1" x="439.37" y="44.29" width="10.12" height="10.12" transform="translate(95.28 328.71) rotate(-45)"/>
  </g>
</svg>